<svg height='100px' width='100px'  fill="#000000" xmlns:x="http://ns.adobe.com/Extensibility/1.0/" xmlns:i="http://ns.adobe.com/AdobeIllustrator/10.0/" xmlns:graph="http://ns.adobe.com/Graphs/1.0/" xmlns="http://www.w3.org/2000/svg" xmlns:xlink="http://www.w3.org/1999/xlink" version="1.1" x="0px" y="0px" viewBox="0 0 100 100" style="enable-background:new 0 0 100 100;" xml:space="preserve"><g><g i:extraneous="self"><path d="M18.31,50.74c-2.73-8.92-3.88-19.65,2.1-27.56c3.36-4.44,8.62-7.68,13.9-9.35c3.68-1.16,7.68-1.48,11.41-0.49    c5.18,1.38,9.4,5.13,12.92,9.18c1.84,2.12,3.56,4.36,5.05,6.73c0.21,0.34,0.43,0.7,0.47,1.09c0.05,0.4-0.12,0.85-0.49,1.01    c-0.56,0.24-1.13-0.28-1.52-0.75c-3.63-4.31-7.31-8.48-11.94-11.69c-3.07-2.13-6.69-3.29-10.3-3.08    c-3.55,0.21-7.58,1.31-10.74,3.04c-2.87,1.58-6.03,4.29-7.67,7.13c-3.29,5.69-3.54,9.71-1.75,19c1.49,7.72,5.24,15.27,9.92,21.54    c3.95,5.28,9.71,11.7,15.33,15.21c5.68,3.54,12.36,6.07,19,6.75c7.84,0.8,15.92-4.52,17.63-12.75c0.83-3.98-0.11-8.8-1.38-12.63    c-1.36-4.13-3.82-8.44-5.8-12.3c-0.72-1.41-5.96-9.13-4.07-9.99c0.49-0.22,1.08-0.05,1.5,0.28c0.42,0.33,0.7,0.8,0.97,1.26    c3.17,5.28,9.11,17.5,9.32,18.08c2.37,6.52,3.31,13.43,0.05,19.76c-3.99,7.76-12.76,11.69-21.26,10.33    c-3.57-0.57-6.99-1.8-10.34-3.12c-3.12-1.23-6.13-2.66-8.82-4.68c-3.2-2.41-6.04-5.25-8.8-8.14c-1.57-1.65-3.24-3.05-4.69-4.86    c-1.51-1.89-2.9-3.87-4.16-5.94C21.68,59.72,19.71,55.32,18.31,50.74z M66.3,33.4c-0.77-1.5-1.44-3.59-0.14-4.66    c0.47-0.39,1.11-0.53,1.57-0.93c0.73-0.66,0.77-1.79,1.28-2.63c0.92-1.51,3.23-1.62,4.7-0.64s2.24,2.71,2.74,4.4    c0.6,2.01,0.91,4.1,0.94,6.19c0.01,0.9-0.03,1.81-0.12,2.71c-0.09,0.86-0.27,1.79-0.93,2.36c-0.71,0.61-1.79,0.61-2.65,0.23    s-1.54-1.05-2.2-1.71c-1.22-1.22-2.45-2.45-3.67-3.67c-2.07,1.24-2.33,4.1-2.26,6.51c0.09,3.18-0.21,7.16-4.14,7.64    c-1.72,0.21-3.44-0.33-5.07-0.9c-0.18,0.91,0.28,1.85,0.95,2.49c0.67,0.64,1.53,1.04,2.36,1.45c1.08,0.53,2.28,1.13,2.82,2.28    c6.53-0.21,12.84,4.75,14.19,11.14c1.35,6.39-2.43,13.48-8.48,15.92c-2.91,1.18-6.19,1.34-9.25,0.65    c-5.78-1.3-10.84-5.9-12.15-11.69c-4.94,0.25-9.22-3.35-12.39-7.15c-2.99-3.6-5.55-7.64-6.87-12.13    c-1.38-4.67-1.2-9.48,0.64-13.99c0.77-1.88,1.86-3.53,3.41-4.86c0.76-0.65,1.6-1.21,2.5-1.65c0.24-0.12,2.65-0.89,2.65-0.92    c0.5-3.82,2.95-7.32,6.36-9.11c0.69-0.36,1.51-0.66,2.24-0.38c1.45,0.56,1.25,2.62,1.59,4.14c0.64,2.85,3.73,4.27,6.31,5.63    c2.79,1.47,5.61,3.64,6.16,6.75c0.7,3.94-2.2,6.08-4.36,8.75c-0.07,0.09,3.24,0.98,3.53,1.02c0.94,0.13,2.6,0.61,3.45,0.11    c1.99-1.17,0.76-5.38,0.89-7.23c0.09-1.27,0.38-2.53,1.01-3.64C64.07,35.6,66.18,33.17,66.3,33.4z M53.59,52.82    c-2.73-0.41-5.37-0.47-8,0.39c-1.07,0.35-1.89,0.77-3.03,0.85c-0.89,0.06-1.21-1.43-0.36-1.72c2.05-0.72,7.87-2.14,7.73-2    c1.61-0.18,3.24-0.16,4.95,0.14c-0.18-0.74-0.4-1.48-0.69-2.19c-0.05-0.17-0.09-0.33-0.15-0.51c-0.04-0.25-0.07-0.5-0.09-0.75    c-0.02-0.26-0.22-0.52-0.5-0.5c-2.02,0.13-3.68,1.29-5.52,2c-0.53,0.06-1.06,0.07-1.56,0.03c-1.27-0.1-1.39-1.86-0.13-2.18    c2.72-0.7,4.64-1.62,7.08-3.01c6.17-3.52,3.38-7.77,1.34-9.69c-2.41-2.26-6.36-2.97-8.47-5.44c-1.34-1.56-0.56-2.88-0.99-4.69    c-1.08-4.6-7.47,4.96-5.99,6.27c3.69,0.16,7.86,1.72,9.62,4.65c0.64,1.07-0.8,1.81-1.61,1.17c-3.75-3.03-9.2-5-13.54-1.88    c-4.05,2.92-4.91,9.27-4.36,13.84c0.63,5.21,3.24,9.99,6.31,14.03c3.04,4.01,6.19,5.88,11.12,6.87c0-0.05,0-0.1,0-0.15    c0.08-1.14,1.84-1.54,2.09-0.29c1.11,5.51,4.81,10.09,10.59,11.04c4.13,0.68,8.82,0.02,11.95-2.8c3.42-4.85,4.3-9.34,1.07-14.42    c-2.18-3.44-5.95-4.96-9.88-5.05c-0.79,1.74-3.92,2.14-5.55,2.12c-2.38-0.03-5.06-0.5-7.32,0.51c-1.65,0.74-3.29,1.47-4.95,2.19    c-0.4,0.18-0.82,0.35-1.25,0.37s-0.91-0.19-1.1-0.58c-0.33-0.71,0.39-1.45,1.05-1.87c4.1-2.64,8.92-3.38,13.66-3.17    c0.85,0.04,3.08-0.19,2.78-1.19c-0.11-0.38-1.16-0.83-1.5-1.01C56.9,53.41,55.24,53.07,53.59,52.82z M70.43,35.09    c0.41,0.46,3.96,3.52,4.74,2.8c0.11-0.1,0.16-0.27,0.15-0.54c-0.09-1.8-0.43-3.49-0.79-5.26c-0.28-1.4-0.72-3.12-1.5-4.37    c-1.1-1.75-2.01-0.44-2.7,0.81c-0.47,0.85-1.29,1.76-2.33,1.82c-0.11,0.01-0.25,0.01-0.32,0.1    C67.06,31.21,69.98,34.58,70.43,35.09z M62.59,70.76c1.29,0.9,2.8,0.9,4.15,0.1c1.35-0.8,2.05-2.28,1.68-3.81    c-0.26-1.05-1.7-0.87-1.83,0.15c-0.08,0.67-0.33,1.34-0.98,1.64c-0.47,0.21-1.35,0.19-1.82-0.03c-0.66-0.31-1.62-1.55-0.67-1.99    c0.9-0.42,0.41-1.99-0.58-1.68C59.65,66.04,60.62,69.37,62.59,70.76z"></path></g></g></svg>