<svg height='100px' width='100px'  fill="#000000" xmlns="http://www.w3.org/2000/svg" xmlns:xlink="http://www.w3.org/1999/xlink" version="1.2" baseProfile="tiny" x="0px" y="0px" viewBox="0 0 100 100" xml:space="preserve"><path d="M52.12,65.38c0.56,0.56,0.88,1.33,0.88,2.12s-0.32,1.56-0.88,2.12C51.56,70.18,50.79,70.5,50,70.5s-1.561-0.32-2.12-0.88  C47.319,69.06,47,68.29,47,67.5s0.319-1.561,0.88-2.12C48.99,64.26,51,64.26,52.12,65.38z M54.37,76.63  c-0.561,0.56-0.88,1.33-0.88,2.12s0.319,1.56,0.88,2.12c0.56,0.56,1.34,0.88,2.13,0.88c0.78,0,1.56-0.32,2.12-0.88  c0.56-0.561,0.88-1.33,0.88-2.12s-0.32-1.561-0.88-2.12C57.49,75.51,55.49,75.51,54.37,76.63z M41.38,76.63  c-0.55,0.56-0.87,1.33-0.87,2.12s0.32,1.56,0.87,2.12c0.56,0.56,1.34,0.88,2.13,0.88c0.78,0,1.55-0.32,2.12-0.88  c0.55-0.561,0.87-1.33,0.87-2.12s-0.32-1.561-0.87-2.12C44.5,75.51,42.5,75.51,41.38,76.63z M86.515,69.205  c0.313,1.965,0.473,3.905,0.473,5.782c0,0.573-0.014,1.143-0.039,1.71c-0.162,3.534-1.984,6.661-5.001,8.578  c-1.807,1.148-3.879,1.734-5.96,1.734c-1.433,0-2.869-0.277-4.227-0.84l-2.372-0.982c-2.128,4.094-5.5,7.558-9.875,9.649  c-3.033,1.449-6.266,2.179-9.506,2.179c-2.656,0-5.317-0.489-7.882-1.473c-5.696-2.184-10.119-6.49-12.452-12.124  c-2.322-5.604-2.211-11.989,0.305-17.516c1.985-4.364,2.035-9.498,0.137-14.083l-4.818-11.634L11.535,53.949  c-1.434,1.435-3.572,1.862-5.448,1.085C4.212,54.258,3,52.444,3,50.414V26.967c0-2.842,1.696-5.38,4.322-6.467L41.626,6.291  c9.934-4.115,21.35-4.051,31.317,0.175c9.825,4.165,17.353,11.819,21.196,21.55C99.683,42.052,96.68,58.103,86.515,69.205z   M66.585,68.004c-1.912-4.534-5.497-8.008-10.094-9.782c-5.665-2.188-10.227-6.613-12.517-12.142l-6.649-16.053  c-3.177,2.115-6.161,4.504-8.949,7.141l5.435,13.122c2.321,5.606,2.252,11.901-0.191,17.27c-2.088,4.589-2.177,9.677-0.25,14.328  c1.909,4.61,5.527,8.134,10.188,9.921c4.66,1.786,9.713,1.579,14.231-0.581C66.32,87.15,70.266,76.732,66.585,68.004z   M40.771,27.893L47.67,44.55c1.685,4.067,4.887,7.394,8.896,9.331l0.903-2.177c1.377-3.325,4.3-5.769,7.816-6.537  c3.521-0.771,7.197,0.234,9.839,2.685c0.541,0.502,1.07,1.023,1.584,1.56c1.748-4.874,1.594-10.221-0.502-15.058  c-4.421-10.204-16.604-14.947-27.155-10.577C46.177,24.966,43.42,26.35,40.771,27.893z M82.935,67.174  c9.641-9.995,12.579-24.789,7.484-37.689c-3.446-8.726-10.207-15.594-19.037-19.337c-8.987-3.81-19.274-3.87-28.225-0.162  L8.853,24.195C7.727,24.661,7,25.75,7,26.967v23.447c0,0.604,0.432,0.848,0.617,0.924c0.188,0.077,0.664,0.21,1.089-0.217  l15.09-15.089c0.001-0.001,0.001-0.002,0.002-0.003c0.233-0.236,0.478-0.456,0.714-0.689c0.061-0.069,0.129-0.133,0.2-0.193  c3.767-3.691,7.894-6.931,12.349-9.693c0.068-0.051,0.141-0.095,0.217-0.138c3.249-1.997,6.662-3.754,10.242-5.236  c12.562-5.204,27.072,0.488,32.356,12.682c2.981,6.88,2.675,14.626-0.842,21.251c-0.315,0.594-0.908,0.99-1.577,1.054  c-0.678,0.062-1.327-0.214-1.747-0.737c-1.013-1.258-2.125-2.451-3.307-3.546c-1.708-1.583-3.991-2.206-6.265-1.709  c-2.271,0.496-4.085,2.013-4.975,4.16l-0.952,2.297c1.388,0.723,2.675,1.587,3.86,2.57l2.196-2.196c0.781-0.781,2.047-0.781,2.828,0  s0.781,2.047,0,2.828l-2.186,2.186c0.979,1.179,1.83,2.472,2.554,3.855l2.872-1.19c1.019-0.424,2.19,0.062,2.613,1.082  s-0.062,2.19-1.082,2.613l-2.864,1.187c0.459,1.493,0.733,3.013,0.86,4.535h3.141c1.104,0,2,0.896,2,2s-0.896,2-2,2h-3.168  c-0.151,1.528-0.47,3.03-0.925,4.49l2.38,0.985c2.127,0.88,4.56,0.664,6.51-0.574c1.901-1.209,3.051-3.172,3.151-5.386  c0.023-0.506,0.035-1.015,0.035-1.527c0-1.952-0.195-3.991-0.579-6.06C82.29,68.293,82.485,67.64,82.935,67.174z"></path></svg>