<svg height='100px' width='100px'  fill="#000000" xmlns="http://www.w3.org/2000/svg" data-name="Layer 1" viewBox="0 0 128 128" x="0px" y="0px"><title>human Anatomy solid</title><path d="M79.06042,32H48.93958a.90128.90128,0,0,0-.81934.55078,1.13159,1.13159,0,0,0,.124,1.20508C54.07135,41.10059,60.77148,50.44727,64,58.16846c3.22845-7.72119,9.92865-17.06787,15.75671-24.41309a1.13211,1.13211,0,0,0,.123-1.20459A.90128.90128,0,0,0,79.06042,32Z"></path><path d="M126.30042,28.70972c-2.632-5.77368-8.058-9.872-16.12732-12.18115A17.06966,17.06966,0,0,0,105.60883,16a30.288,30.288,0,0,0-13.68359,3.54694,9.86766,9.86766,0,0,1-4.58075,1.03058c-3.05383,0-6.42175-1.02887-9.98737-2.11816C73.39929,17.25024,69.3067,16,65.08313,16H62.91687c-4.22327,0-8.316,1.25024-12.27386,2.45935-3.56586,1.08923-6.93384,2.11816-9.98749,2.11816a9.86808,9.86808,0,0,1-4.58081-1.03058A30.2895,30.2895,0,0,0,22.3913,16a17.01961,17.01961,0,0,0-4.60358.54C9.75757,18.83771,4.33154,22.936,1.69958,28.70972c-2.795,6.13135-1.50726,12.38165-.50391,15.53619A10.78216,10.78216,0,0,0,4.68457,57.99115a3.94379,3.94379,0,0,0,3.95593.358c.44427,1.93408,1.59668,4.49158,4.59,4.49158a6.01189,6.01189,0,0,0,.97406-.08313S16.60535,66,19.83984,66a5.4797,5.4797,0,0,0,3.478-1.33954s.15814.01416.42468.01416c1.598,0,7.095-.50842,5.79572-7.62311,0,0,2.37885-7.84845-3.658-9.47833a8.568,8.568,0,0,0-3.96783-4.31891,3.98533,3.98533,0,0,0-.21307-1.17371,7.94651,7.94651,0,0,0-6.2215-5.21967A7.03891,7.03891,0,0,1,18.843,32.67358a20.01773,20.01773,0,0,1,5.48981-.85327c9.201,0,10.87708,8.65308,11.11963,10.3877a45.17894,45.17894,0,0,0,2.679,11.20471c.68341,5.498,5.371,10.81207,7.97662,13.385-.47626,10.01556,2.128,15.56366,3.75958,18.0141V106a6.0068,6.0068,0,0,0,6,6h1.27875a6.0068,6.0068,0,0,0,6-6v-1.85773h1.70728V106a6.00674,6.00674,0,0,0,5.99994,6h1.27881a6.00674,6.00674,0,0,0,5.99994-6V84.81183c1.63165-2.45044,4.2359-7.99854,3.75958-18.0141,2.60571-2.57294,7.29327-7.887,7.97668-13.385A45.17708,45.17708,0,0,0,92.54749,42.208c.24261-1.73462,1.9187-10.3877,11.11963-10.3877a20.014,20.014,0,0,1,5.48572.85205,6.951,6.951,0,0,1,3.37708,4.187,7.94754,7.94754,0,0,0-6.22919,5.22125,3.993,3.993,0,0,0-.19116,1.77612,8.405,8.405,0,0,0-2.98975,3.71649c-6.03687,1.62988-3.658,9.47833-3.658,9.47833-1.29926,7.11469,4.19763,7.62311,5.79572,7.62311.26654,0,.42468-.01416.42468-.01416A5.47943,5.47943,0,0,0,109.16016,66c3.23456,0,5.63531-3.24237,5.63531-3.24237a6.0106,6.0106,0,0,0,.974.08313c2.84607,0,4.0249-2.30426,4.51563-4.19031a3.95524,3.95524,0,0,0,3.03033-.6593,10.78216,10.78216,0,0,0,3.48889-13.74524C127.80768,41.09137,129.09546,34.84106,126.30042,28.70972ZM17.72864,51.78772a4.00022,4.00022,0,0,0,1.55127-3.30908,11.06483,11.06483,0,0,0-.12-1.27881,3.99619,3.99619,0,0,0,.8866-.4292,4.45306,4.45306,0,0,1,2.04907,2.10431,3.66727,3.66727,0,0,0,2.742,2.56c.6311.17041.76355.40533.84265.54572a6.47882,6.47882,0,0,1,.03,3.91058,3.99936,3.99936,0,0,0-.10693,1.87885,3.49337,3.49337,0,0,1-.1037,2.41528,2.68129,2.68129,0,0,1-1.75708.48926c-.03912,0-.07141-.00055-.09558-.0014a3.84078,3.84078,0,0,0-.42743-.02417,3.78144,3.78144,0,0,0-2.40613.89246A1.69643,1.69643,0,0,1,19.83984,62a4.31085,4.31085,0,0,1-2.42059-1.62262,3.99912,3.99912,0,0,0-3.86237-1.567,2.05254,2.05254,0,0,1-.32635.03033.80151.80151,0,0,1-.11731-.0072,5.02814,5.02814,0,0,1-.75208-2.63965,3.83178,3.83178,0,0,0-.229-1.20935,3.91843,3.91843,0,0,0,2.403-2.43219,3.99937,3.99937,0,0,0,3.19354-.76465ZM66,96H62a2,2,0,0,1,0-4h4a2,2,0,0,1,0,4Zm0-8H62a2,2,0,0,1,0-4h4a2,2,0,0,1,0,4Zm0-8H62a2,2,0,0,1,0-4h4a2,2,0,0,1,0,4ZM82.89044,36.24121C72.44818,49.40234,66.31738,60.13428,66.06836,65.68652a2.1504,2.1504,0,0,0,1.64154,2.2959,1.7974,1.7974,0,0,0,1.44824-.4375,2.14343,2.14343,0,0,0,.7168-1.62109,2,2,0,1,1,4,0A6.13877,6.13877,0,0,1,71.787,70.55957,5.82081,5.82081,0,0,1,67.166,71.94531,5.67781,5.67781,0,0,1,64,70.38867a5.67813,5.67813,0,0,1-3.165,1.55664,5.81122,5.81122,0,0,1-4.622-1.38574,6.13877,6.13877,0,0,1-2.08789-4.63574,2,2,0,1,1,4,0,2.14343,2.14343,0,0,0,.7168,1.62109,1.79159,1.79159,0,0,0,1.44916.4375,2.15057,2.15057,0,0,0,1.64063-2.2959c-.249-5.55225-6.37982-16.28418-16.82111-29.44482a5.10282,5.10282,0,0,1-.5918-5.43164A4.89326,4.89326,0,0,1,48.93958,28H79.06042a4.89326,4.89326,0,0,1,4.42084,2.81006A5.10368,5.10368,0,0,1,82.89044,36.24121Zm33.74884,19.923a5.06421,5.06421,0,0,1-.7525,2.66937.80151.80151,0,0,1-.11731.0072,2.05254,2.05254,0,0,1-.32636-.03033,3.99912,3.99912,0,0,0-3.86237,1.567C111.24988,60.82428,110.00446,62,109.16016,62a1.69675,1.69675,0,0,1-.97351-.4585,3.78093,3.78093,0,0,0-2.40607-.89246,3.84078,3.84078,0,0,0-.42743.02417c-.02423.00085-.05652.0014-.09558.0014a2.68144,2.68144,0,0,1-1.7572-.48926,3.49315,3.49315,0,0,1-.10364-2.41528,3.89549,3.89549,0,0,0-.09955-1.85406,6.50253,6.50253,0,0,1,.02252-3.93536c.07916-.14038.21155-.37531.84271-.54572a4.00007,4.00007,0,0,0,2.75372-2.60162,4.1736,4.1736,0,0,1,1.57263-1.77954c.11633.0506.23035.10669.35132.14606a11.0661,11.0661,0,0,0-.12,1.27881,4.00007,4.00007,0,0,0,4.74481,4.07379,3.96925,3.96925,0,0,0,3.30621,2.64832A3.92852,3.92852,0,0,0,116.63928,56.16418Z"></path></svg>