<svg height='100px' width='100px'  fill="#000000" xmlns="http://www.w3.org/2000/svg" xmlns:xlink="http://www.w3.org/1999/xlink" version="1.1" x="0px" y="0px" viewBox="0 0 100 100" style="enable-background:new 0 0 100 100;" xml:space="preserve"><path d="M39.3791504,34.6870117c0-0.8286133,0.6713867-1.5,1.5-1.5c1.6523438,0,3.1020508-2.0014648,3.1020508-4.2827148  c0-0.8286133,0.6713867-1.5,1.5-1.5s1.5,0.6713867,1.5,1.5c0,3.9477539-2.7944336,7.2827148-6.1020508,7.2827148  C40.0505371,36.1870117,39.3791504,35.515625,39.3791504,34.6870117z M28.7697754,28.9042969  c0-5.7290039,7.0322266-15.5161133,10.0551758-19.4580078c0.4956055-0.6450195,1.2441406-1.0146484,2.0541992-1.0146484  c0.0004883,0,0.0009766,0,0.0009766,0c0.8105469,0.0004883,1.5585938,0.3706055,2.0527344,1.0151367  c3.0234375,3.9414063,10.0556641,13.7265625,10.0556641,19.4575195c0,7.3276367-5.4321289,13.2890625-12.1088867,13.2890625  C34.2023926,42.1933594,28.7697754,36.2319336,28.7697754,28.9042969z M31.7697754,28.9042969  c0,5.6733398,4.0864258,10.2890625,9.1098633,10.2890625c5.0224609,0,9.1083984-4.6157227,9.1083984-10.2890625  c0-3.8374023-4.6445313-11.3183594-9.1088867-17.2036133C36.4147949,17.5864258,31.7697754,25.0683594,31.7697754,28.9042969z   M82.2287598,14.4975586v41.8852539c0,9.4658203-6.7763672,17.4648438-16.1123047,19.0214844  c-0.2851563,0.0478516-0.4785156,0.2724609-0.4589844,0.5341797l0.8798828,11.8710938  c0.0712891,0.9677734-0.265625,1.9296875-0.9257813,2.640625s-1.5947266,1.1181641-2.5644531,1.1181641H36.9523926  c-0.9697266,0-1.9047852-0.4072266-2.5649414-1.1181641c-0.659668-0.7109375-0.9970703-1.6728516-0.9257813-2.640625  L34.3415527,75.9375c0.0195313-0.2607422-0.1738281-0.4853516-0.4594727-0.5332031  c-9.3349609-1.5566406-16.1108398-9.5556641-16.1108398-19.0214844v-6.8276367c0-1.9296875,1.5703125-3.5,3.5-3.5h42.2827148  V14.4975586c0-1.9296875,1.5703125-3.5,3.5-3.5h11.6748047C80.6584473,10.9975586,82.2287598,12.5678711,82.2287598,14.4975586z   M20.7712402,53.40625h42.7827148v-4.3510742H21.2712402c-0.2758789,0-0.5,0.2241211-0.5,0.5V53.40625z M79.2277222,56.40625  H20.7722778c0.0113525,7.9828491,5.7284546,14.7258911,13.6034546,16.0390625  c1.8208008,0.3037109,3.0922852,1.9003906,2.9580078,3.7148438l-0.8798828,11.8720703  c-0.0141602,0.1884766,0.0766602,0.3164063,0.1318359,0.3759766c0.0556641,0.0595703,0.1772461,0.1601563,0.3666992,0.1601563  h26.0947266c0.1894531,0,0.3105469-0.0996094,0.3662109-0.1591797s0.1464844-0.1884766,0.1318359-0.3769531l-0.8798828-11.8720703  c-0.1337891-1.8144531,1.1376953-3.4111328,2.9570313-3.7148438C73.4992676,71.1321411,79.2163696,64.3890991,79.2277222,56.40625z   M79.2287598,21.9077148H66.5539551V53.40625h12.6748047V21.9077148z M79.2287598,14.4975586c0-0.2758789-0.2246094-0.5-0.5-0.5  H67.0539551c-0.2753906,0-0.5,0.2241211-0.5,0.5v4.4101563h12.6748047V14.4975586z"></path></svg>