<svg height='100px' width='100px'  fill="#000000" xmlns="http://www.w3.org/2000/svg" xmlns:xlink="http://www.w3.org/1999/xlink" version="1.1" x="0px" y="0px" viewBox="0 0 512 512" enable-background="new 0 0 512 512" xml:space="preserve"><g><g><g><path d="M203.806,286.846c-8.456-0.83-16.892,1.945-23.146,7.616c-1.86,1.686-3.484,3.586-4.849,5.646     c-1.364-2.061-2.989-3.961-4.849-5.647c-6.254-5.67-14.688-8.438-23.146-7.616c-13.389,1.313-24.301,11.466-26.534,24.688     c-0.249,1.472-0.392,2.975-0.426,4.47c-0.147,6.633,2.176,13.3,6.541,18.773l5.65,7.084l33.846,36.784     c2.206,2.672,5.444,4.2,8.918,4.2s6.712-1.528,8.918-4.2l33.615-36.516l5.881-7.354c4.365-5.473,6.688-12.14,6.54-18.772     c-0.032-1.49-0.176-2.994-0.425-4.47C228.105,298.311,217.194,288.159,203.806,286.846z M216.407,328.539l-5.541,6.946     l-33.599,36.498l-0.23,0.27c-0.41,0.514-0.944,0.591-1.227,0.591s-0.816-0.077-1.227-0.591l-33.829-36.768l-5.541-6.946     c-2.907-3.646-4.456-8.019-4.361-12.313c0.023-1.013,0.12-2.031,0.289-3.028c1.483-8.782,8.742-15.527,17.65-16.4     c5.741-0.57,11.224,1.237,15.453,5.072c4.172,3.782,6.565,9.18,6.565,14.808v5.925h10v-5.925c0-5.628,2.393-11.024,6.565-14.808     c4.229-3.834,9.717-5.644,15.453-5.072c8.908,0.873,16.166,7.618,17.65,16.4c0.169,1,0.266,2.018,0.288,3.026     C220.863,320.521,219.314,324.894,216.407,328.539z"></path><path d="M467.593,332.95H322.139l-4.265-6.732l11.999-18.948l-12-18.96l12-18.951l-12-18.951l12-18.949l-12-18.95l15.166-23.95     H18.571l15.166,23.95l-12,18.95l12,18.949l-12,18.951l12,18.951l-12,18.96l12,18.949l-12,18.95l12.001,18.95L21.737,383.08     l12,18.948l-12,18.949l12.001,18.961l-15.165,23.96h185.952v-10H36.737l8.836-13.96l-12-18.959l12-18.951l-12-18.95l12-18.961     l-12-18.948l12-18.95l-12-18.951l12-18.96l-12-18.949l12-18.951l-12-18.949l12-18.95l-8.833-13.95h278.131l-8.834,13.95l12,18.95     l-12,18.949l12,18.951l-12,18.949l12,18.96l-12.001,18.952l4.264,6.73h-16.967V213.808h-10V332.95h-11.97     c0.156-2.245,0.242-4.492,0.242-6.722c0-52.824-42.976-95.8-95.8-95.8c-52.818,0-95.79,42.976-95.79,95.8     c0,52.818,42.972,95.79,95.79,95.79c14.832,0,29.369-3.427,42.53-9.947v21.428H85.161v10h133.175v16.12     c0,14.246,11.59,25.836,25.836,25.836h223.421c14.246,0,25.836-11.59,25.836-25.836V358.786     C493.429,344.54,481.839,332.95,467.593,332.95z M175.806,412.019c-47.305,0-85.79-38.485-85.79-85.79     c0-47.311,38.485-85.8,85.79-85.8c47.311,0,85.8,38.49,85.8,85.8c0,2.229-0.099,4.477-0.272,6.722h-5.043     c0.185-2.238,0.285-4.484,0.285-6.722c0-44.536-36.232-80.77-80.77-80.77c-44.531,0-80.76,36.234-80.76,80.77     c0,44.531,36.229,80.76,80.76,80.76c15.05,0,29.83-4.254,42.53-12.109v5.878C205.427,408.131,190.783,412.019,175.806,412.019z      M218.336,358.786v23.986c-12.195,9.177-27.2,14.216-42.53,14.216c-39.018,0-70.76-31.743-70.76-70.76     c0-39.022,31.742-70.77,70.76-70.77c39.023,0,70.771,31.748,70.771,70.77c0,2.237-0.119,4.485-0.33,6.722h-2.074     C229.926,332.95,218.336,344.54,218.336,358.786z M483.429,459.619c0,8.732-7.104,15.836-15.836,15.836H244.172     c-8.732,0-15.836-7.104-15.836-15.836V358.786c0-8.732,7.104-15.836,15.836-15.836h223.421c8.732,0,15.836,7.104,15.836,15.836     V459.619z"></path><rect x="58.288" y="213.808" width="10" height="224.837"></rect><rect x="85.161" y="208.583" width="181.59" height="10"></rect></g><g><rect x="293.706" y="404.202" width="142.223" height="10"></rect><rect x="273.802" y="404.202" width="10.476" height="10"></rect><rect x="237.505" y="404.202" width="27.422" height="10"></rect><rect x="444.293" y="404.203" transform="matrix(-0.7071 -0.7071 0.7071 -0.7071 493.924 1022.9943)" width="29.077" height="9.999"></rect><rect x="444.293" y="375.141" transform="matrix(-0.7071 -0.7071 0.7071 -0.7071 514.4736 973.3832)" width="29.077" height="9.999"></rect><rect x="444.293" y="433.265" transform="matrix(-0.7071 -0.7071 0.7071 -0.7071 473.3737 1072.6071)" width="29.077" height="9.999"></rect><path d="M261.698,431.598c-8.983,0-16.292,7.309-16.292,16.293c0,8.983,7.309,16.292,16.292,16.292     c8.984,0,16.293-7.309,16.293-16.292C277.991,438.906,270.683,431.598,261.698,431.598z M261.698,454.183     c-3.47,0-6.292-2.822-6.292-6.292s2.822-6.293,6.292-6.293s6.293,2.823,6.293,6.293S265.168,454.183,261.698,454.183z"></path><path d="M261.698,386.226c8.984,0,16.293-7.309,16.293-16.293c0-8.983-7.309-16.292-16.293-16.292     c-8.983,0-16.292,7.309-16.292,16.292C245.406,378.917,252.715,386.226,261.698,386.226z M261.698,363.641     c3.47,0,6.293,2.822,6.293,6.292s-2.823,6.293-6.293,6.293s-6.292-2.823-6.292-6.293S258.229,363.641,261.698,363.641z"></path><path d="M362.982,431.598c-8.984,0-16.293,7.309-16.293,16.293c0,8.983,7.309,16.292,16.293,16.292s16.293-7.309,16.293-16.292     C379.275,438.906,371.967,431.598,362.982,431.598z M362.982,454.183c-3.47,0-6.293-2.822-6.293-6.292s2.823-6.293,6.293-6.293     s6.293,2.823,6.293,6.293S366.452,454.183,362.982,454.183z"></path><path d="M362.982,386.226c8.984,0,16.293-7.309,16.293-16.293c0-8.983-7.309-16.292-16.293-16.292s-16.293,7.309-16.293,16.292     C346.689,378.917,353.998,386.226,362.982,386.226z M362.982,363.641c3.47,0,6.293,2.822,6.293,6.292s-2.823,6.293-6.293,6.293     s-6.293-2.823-6.293-6.293S359.513,363.641,362.982,363.641z"></path><path d="M413.624,431.598c-8.983,0-16.292,7.309-16.292,16.293c0,8.983,7.309,16.292,16.292,16.292     c8.984,0,16.293-7.309,16.293-16.292C429.917,438.906,422.608,431.598,413.624,431.598z M413.624,454.183     c-3.47,0-6.292-2.822-6.292-6.292s2.822-6.293,6.292-6.293s6.293,2.823,6.293,6.293S417.094,454.183,413.624,454.183z"></path><path d="M413.624,386.226c8.984,0,16.293-7.309,16.293-16.293c0-8.983-7.309-16.292-16.293-16.292     c-8.983,0-16.292,7.309-16.292,16.292C397.332,378.917,404.641,386.226,413.624,386.226z M413.624,363.641     c3.47,0,6.293,2.822,6.293,6.292s-2.823,6.293-6.293,6.293s-6.292-2.823-6.292-6.293S410.154,363.641,413.624,363.641z"></path><path d="M312.341,431.598c-8.984,0-16.293,7.309-16.293,16.293c0,8.983,7.309,16.292,16.293,16.292     c8.983,0,16.292-7.309,16.292-16.292C328.633,438.906,321.324,431.598,312.341,431.598z M312.341,454.183     c-3.47,0-6.293-2.822-6.293-6.292s2.823-6.293,6.293-6.293s6.292,2.823,6.292,6.293S315.811,454.183,312.341,454.183z"></path><path d="M312.341,386.226c8.983,0,16.292-7.309,16.292-16.293c0-8.983-7.309-16.292-16.292-16.292     c-8.984,0-16.293,7.309-16.293,16.292C296.048,378.917,303.356,386.226,312.341,386.226z M312.341,363.641     c3.47,0,6.292,2.822,6.292,6.292s-2.822,6.293-6.292,6.293s-6.293-2.823-6.293-6.293S308.871,363.641,312.341,363.641z"></path></g><g><path d="M416.667,80.209v17.402h-17.402v23.983h17.402v17.401h23.983v-17.401h17.401V97.612H440.65V80.209H416.667z      M448.052,107.612v3.983H430.65v17.401h-3.983v-17.401h-17.402v-3.983h17.402V90.209h3.983v17.402H448.052z"></path><path d="M377.08,234.025c13.74,0,24.918,11.178,24.918,24.918c0,8.502-4.271,16.334-11.426,20.952l5.424,8.402     c10.02-6.469,16.002-17.442,16.002-29.354c0-17.556-13.025-32.122-29.918-34.555v-13.383l7.667,7.666l7.07-7.07l-19.639-19.64     l-19.836,19.837l7.07,7.07l7.667-7.666v13.186c-16.893,2.434-29.918,16.999-29.918,34.555c0,18.618,14.555,33.937,33.134,34.873     l0.504-9.988c-13.255-0.668-23.638-11.599-23.638-24.885C352.162,245.203,363.34,234.025,377.08,234.025z"></path><path d="M453.967,225.49l-7.67,7.67l-6.351-6.351l-7.07,7.07l6.351,6.351l-6.706,6.706c-5.5-4.115-12.109-6.533-19.05-6.899     l-0.527,9.986c6.15,0.324,11.938,2.904,16.298,7.263c9.715,9.716,9.715,25.524,0,35.239c-9.716,9.716-25.524,9.715-35.24,0.001     c-9.715-9.716-9.715-25.524,0-35.24c1.372-1.372,2.895-2.58,4.527-3.59l-5.264-8.502c-2.287,1.416-4.419,3.105-6.334,5.021     c-13.615,13.615-13.615,35.767,0,49.381c6.808,6.809,15.747,10.212,24.69,10.211c8.94-0.001,17.884-3.404,24.69-10.211     c12.415-12.414,13.504-31.923,3.278-45.589l6.707-6.707l6.35,6.35l7.07-7.07l-6.35-6.35l7.67-7.67L453.967,225.49z"></path><rect x="302.258" y="153.564" width="151.393" height="10"></rect><rect x="302.258" y="115.261" width="40.368" height="10"></rect><rect x="302.258" y="133.595" width="74.245" height="10"></rect><polygon points="481.708,323.262 481.708,59.396 274.039,59.396 274.039,176.529 284.039,176.529 284.039,69.396 471.708,69.396      471.708,323.262    "></polygon></g><g><polygon points="215.135,65.423 164.593,115.964 149.624,100.996 142.553,108.066 164.593,130.107 222.206,72.494    "></polygon><path d="M246.469,159.711c2.015-1.142,3.1-3.358,2.764-5.648c-0.335-2.283-2.005-4.09-4.257-4.604     c-3.387-0.771-8.298-2.596-12.464-6.904c-1.484-1.536-2.75-3.257-3.783-5.139c15.391-17.16,20.852-41.097,14.239-63.323     c-5.052-16.979-16.493-31.003-32.219-39.489c-15.699-8.472-33.667-10.336-50.59-5.249c-17.308,5.201-31.443,16.873-39.804,32.866     c-8.363,15.998-9.885,34.259-4.285,51.418c9.088,27.844,35.839,46.667,65.109,45.83l-0.294-9.996     c-24.859,0.755-47.588-15.281-55.309-38.938c-4.758-14.577-3.465-30.09,3.641-43.682c7.103-13.586,19.113-23.503,33.819-27.923     c14.361-4.315,29.619-2.728,42.963,4.474c13.37,7.215,23.095,19.126,27.383,33.54c5.903,19.841,0.476,41.291-14.163,55.979     l-2.317,2.324l1.212,3.05c1.676,4.224,4.102,7.994,7.208,11.208c2.086,2.157,4.295,3.871,6.487,5.232     c-16.28,3.458-29.747-6.72-30.417-7.238l-6.148,7.887c0.722,0.564,13.174,10.096,29.778,10.096     C231.668,165.481,238.98,163.953,246.469,159.711z"></path></g></g></g></svg>