<svg height='100px' width='100px'  fill="#000000" xmlns="http://www.w3.org/2000/svg" xmlns:xlink="http://www.w3.org/1999/xlink" version="1.1" x="0px" y="0px" viewBox="0 0 64 64" style="enable-background:new 0 0 64 64;" xml:space="preserve"><path d="M14.903,22.233l0.541-0.01c0.552-0.01,0.992-0.466,0.982-1.018c-0.01-0.552-0.485-0.989-1.018-0.982l-0.542,0.01  c-2.207,0.042-4.395-0.283-6.496-0.968l-0.097-0.032c-0.528-0.172-1.09,0.115-1.261,0.64c-0.171,0.525,0.115,1.09,0.64,1.261  l0.098,0.032c2.18,0.711,4.442,1.07,6.73,1.07C14.62,22.237,14.762,22.235,14.903,22.233z"></path><path d="M17.804,24.392c-1.856,0.162-3.734,0.142-5.583-0.058c-0.548-0.058-1.042,0.337-1.102,0.886  c-0.06,0.549,0.337,1.042,0.886,1.102c1.096,0.119,2.2,0.178,3.305,0.178c0.891,0,1.782-0.039,2.668-0.116  c0.55-0.048,0.958-0.533,0.909-1.083C18.839,24.751,18.357,24.338,17.804,24.392z"></path><path d="M20.271,20.883c-0.066-0.548-0.564-0.935-1.113-0.872l-0.407,0.049c-0.548,0.066-0.938,0.565-0.872,1.113  c0.062,0.507,0.493,0.879,0.991,0.879c0.041,0,0.081-0.002,0.122-0.007l0.407-0.049C19.947,21.93,20.338,21.432,20.271,20.883z"></path><path d="M21.363,23.41l-0.393,0.118c-0.529,0.158-0.83,0.716-0.671,1.245c0.13,0.434,0.527,0.714,0.958,0.714  c0.095,0,0.191-0.014,0.287-0.042l0.393-0.118c0.529-0.158,0.83-0.716,0.671-1.245C22.45,23.552,21.893,23.253,21.363,23.41z"></path><path d="M21.065,28.132c-0.166,0.068-0.373,0.126-0.691,0.193c-0.541,0.114-0.886,0.645-0.772,1.185  c0.1,0.471,0.515,0.793,0.978,0.793c0.068,0,0.138-0.007,0.208-0.021c0.442-0.093,0.752-0.183,1.037-0.299  c0.511-0.209,0.755-0.793,0.546-1.305C22.161,28.168,21.581,27.924,21.065,28.132z"></path><path d="M60.843,13.045c-0.395-0.291-1.245-0.694-2.525-0.102c-0.32,0.147-0.669,0.361-1.072,0.608  c-1.854,1.136-5.305,3.25-12.227,2.503c-4.338-0.467-6.003,2.647-7.106,4.708c-0.231,0.431-0.466,0.867-0.694,1.212  c-0.974-1.195-2.038-2.031-3.079-2.419C33.343,19.26,32.58,19.394,32,19.892c-0.58-0.499-1.343-0.632-2.139-0.337  c-1.041,0.388-2.105,1.225-3.079,2.42c-0.228-0.344-0.463-0.781-0.694-1.212c-1.104-2.061-2.775-5.176-7.106-4.708  C12.063,16.8,8.61,14.687,6.755,13.551c-0.403-0.247-0.752-0.46-1.072-0.608c-1.279-0.589-2.131-0.189-2.525,0.102  c-1.358,1.006-1.16,3.293-1.067,3.97c0.232,1.697,1.265,2.877,1.892,3.453c-0.04,0.744,0.035,2.036,0.785,3.369  c0.901,1.601,2.741,2.322,3.798,2.617c0.152,0.943,0.666,2.42,2.355,3.3c1.562,0.814,3.591,0.776,4.638,0.685  c0.496,0.744,1.493,1.981,3.036,2.752c1.167,0.583,2.45,0.729,3.44,0.729c0.32,0,0.606-0.016,0.851-0.036  c-0.042,1.942,0.137,3.991,0.63,6.108c1.832,7.866,6.435,10.709,7.337,11.198c0.213,0.116,0.438,0.173,0.659,0.173  c0.168,0,0.332-0.04,0.487-0.106c0.156,0.066,0.319,0.106,0.488,0.106c0.22,0,0.445-0.057,0.658-0.173  c0.904-0.489,5.506-3.331,7.338-11.198c0.493-2.117,0.672-4.166,0.63-6.108c0.245,0.021,0.531,0.036,0.852,0.036  c0.99,0,2.273-0.146,3.44-0.729c1.543-0.771,2.54-2.009,3.035-2.752c1.052,0.09,3.079,0.128,4.639-0.685  c1.689-0.88,2.203-2.358,2.354-3.3c1.058-0.294,2.897-1.016,3.799-2.617c0.751-1.333,0.825-2.625,0.785-3.369  c0.627-0.575,1.659-1.755,1.892-3.452C62.003,16.338,62.2,14.051,60.843,13.045z M35.869,33.114  c0.084,0.655-0.142,1.105-0.483,1.788c-0.339,0.677-0.76,1.519-0.875,2.711c-0.118,1.217,0.11,2.013,0.277,2.595  c0.155,0.542,0.227,0.789,0.049,1.262c-0.117,0.313-0.514,0.719-0.934,1.148c-0.628,0.642-1.388,1.445-1.903,2.557  c-0.515-1.112-1.275-1.914-1.903-2.557c-0.42-0.429-0.816-0.834-0.934-1.147c-0.178-0.475-0.107-0.722,0.048-1.263  c0.167-0.582,0.395-1.379,0.278-2.595c-0.115-1.192-0.537-2.034-0.875-2.711c-0.341-0.682-0.567-1.133-0.483-1.787  c0.003-0.025,0.016-0.058,0.021-0.086c0.345-0.039,0.672-0.093,0.982-0.162c1.314,2.92,1.914,5.921,1.866,9.378  c0.001,0.045-0.002,0.089-0.001,0.135c0.002,0.088,0.031,0.167,0.054,0.248c0.011,0.038,0.01,0.08,0.025,0.117  c0.035,0.084,0.09,0.153,0.145,0.224c0.024,0.03,0.038,0.067,0.065,0.094c0.06,0.061,0.135,0.102,0.209,0.146  c0.037,0.022,0.066,0.053,0.106,0.07c0.073,0.032,0.156,0.039,0.237,0.052c0.049,0.008,0.092,0.031,0.143,0.031  c0.005,0,0.01,0,0.015,0c0.001,0,0.002,0,0.003,0c0.005,0,0.01,0,0.015,0c0.051-0.001,0.094-0.023,0.143-0.031  c0.081-0.013,0.164-0.02,0.237-0.052c0.04-0.017,0.07-0.049,0.108-0.071c0.073-0.044,0.148-0.085,0.207-0.145  c0.029-0.029,0.044-0.067,0.069-0.099c0.053-0.069,0.108-0.136,0.142-0.218c0.016-0.038,0.016-0.082,0.027-0.122  c0.022-0.079,0.051-0.156,0.053-0.242c0.001-0.045-0.002-0.089-0.001-0.135c-0.048-3.457,0.553-6.457,1.866-9.378  c0.309,0.069,0.637,0.123,0.982,0.162C35.853,33.056,35.866,33.089,35.869,33.114z M32,31.314c0.287,0.32,0.614,0.604,0.996,0.838  c-0.39,0.88-0.722,1.776-0.996,2.69c-0.274-0.914-0.607-1.809-0.997-2.689C31.385,31.918,31.712,31.634,32,31.314z M32.938,29.051  c-0.003-0.009-0.011-0.015-0.014-0.024c-0.034-0.088-0.086-0.164-0.144-0.239c-0.024-0.031-0.042-0.066-0.069-0.094  c-0.051-0.053-0.115-0.09-0.178-0.131c-0.05-0.032-0.095-0.067-0.149-0.09c-0.016-0.007-0.027-0.021-0.044-0.027  c-0.047-0.017-0.094-0.011-0.142-0.021c-0.066-0.014-0.129-0.029-0.198-0.029c-0.068,0-0.131,0.015-0.197,0.029  c-0.048,0.01-0.096,0.004-0.144,0.021c-0.017,0.006-0.028,0.02-0.045,0.027c-0.052,0.022-0.096,0.056-0.144,0.087  c-0.065,0.042-0.13,0.081-0.183,0.135c-0.026,0.027-0.043,0.06-0.066,0.09c-0.059,0.076-0.111,0.152-0.145,0.241  c-0.004,0.009-0.011,0.015-0.015,0.025c-0.214,0.597-0.624,1.259-1.701,1.67c0.298-0.451,0.613-0.907,0.907-1.33  c0.68-0.978,1.314-1.904,1.732-2.716c0.418,0.812,1.053,1.738,1.733,2.716c0.294,0.423,0.609,0.879,0.907,1.33  C33.562,30.311,33.152,29.648,32.938,29.051z M19.489,31.401c-1.66-0.83-2.504-2.465-2.511-2.478  c-0.195-0.393-0.622-0.608-1.061-0.541c-0.695,0.116-2.783,0.268-4.073-0.403c-1.396-0.728-1.342-2.217-1.34-2.271  c0.035-0.518-0.334-0.976-0.847-1.055c-0.65-0.102-2.484-0.622-3.147-1.799c-0.745-1.322-0.5-2.594-0.499-2.598  c0.087-0.394-0.077-0.805-0.407-1.037c-0.013-0.009-1.324-0.946-1.533-2.477c-0.153-1.117,0.062-1.932,0.277-2.09  c0.039-0.031,0.208-0.026,0.496,0.106c0.239,0.11,0.522,0.288,0.866,0.498c2.059,1.261,5.891,3.608,13.485,2.786  c2.993-0.324,4.079,1.704,5.129,3.664c0.399,0.745,0.793,1.445,1.281,1.984c-1.27,2.144-2.242,4.955-2.589,8.168  C22.371,31.94,20.785,32.049,19.489,31.401z M25.464,39.538c-2.155-9.25,2.075-16.982,5.096-18.109c0,0,0,0,0,0  c0.091-0.034,0.144-0.037,0.141-0.041c0.308,0.2,0.583,1.855-0.303,4.015c-0.293,0.716-1.046,1.799-1.774,2.847  c-1.19,1.713-2.314,3.332-2.478,4.61c-0.161,1.259,0.285,2.151,0.678,2.937c0.305,0.609,0.594,1.186,0.673,2.007  c0.081,0.839-0.06,1.331-0.209,1.852c-0.191,0.667-0.408,1.424,0.001,2.517c0.266,0.708,0.805,1.26,1.376,1.844  c0.611,0.625,1.243,1.272,1.605,2.16c0.474,1.165,0.652,2.096,0.695,2.71C29.502,47.802,26.762,45.111,25.464,39.538z   M38.536,39.538c-1.298,5.573-4.038,8.264-5.504,9.349c0.044-0.614,0.222-1.545,0.695-2.71c0.362-0.889,0.995-1.535,1.606-2.16  c0.57-0.584,1.11-1.136,1.376-1.845c0.408-1.092,0.192-1.848,0.001-2.515c-0.149-0.521-0.291-1.014-0.21-1.853  c0.079-0.821,0.368-1.397,0.674-2.008c0.394-0.785,0.839-1.677,0.679-2.937c-0.164-1.278-1.288-2.896-2.479-4.609  c-0.728-1.048-1.48-2.132-1.773-2.847c-0.886-2.161-0.611-3.815-0.319-4.01c0.002,0,0.005,0,0.008,0c0.021,0,0.07,0.006,0.149,0.036  C36.461,22.556,40.69,30.288,38.536,39.538z M59.929,16.743c-0.211,1.53-1.521,2.467-1.529,2.473  c-0.336,0.23-0.499,0.643-0.411,1.041c0.003,0.012,0.251,1.268-0.498,2.598c-0.663,1.177-2.497,1.698-3.146,1.799  c-0.507,0.076-0.874,0.534-0.85,1.045c0.003,0.063,0.056,1.553-1.34,2.281c-1.29,0.671-3.376,0.52-4.073,0.403  c-0.431-0.071-0.865,0.147-1.061,0.541c-0.008,0.017-0.856,1.651-2.511,2.478c-1.297,0.648-2.884,0.538-3.528,0.457  c-0.347-3.213-1.319-6.023-2.589-8.168c0.488-0.539,0.883-1.239,1.281-1.984c1.05-1.959,2.14-3.981,5.129-3.664  c7.592,0.82,11.428-1.525,13.485-2.786c0.345-0.211,0.628-0.388,0.866-0.498c0.287-0.133,0.457-0.135,0.496-0.107  C59.866,14.811,60.082,15.626,59.929,16.743z"></path><path d="M55.727,19.234l-0.095,0.031c-2.103,0.686-4.289,1.015-6.499,0.968l-0.541-0.01c-0.575-0.018-1.008,0.43-1.018,0.982  c-0.01,0.552,0.43,1.008,0.982,1.018l0.539,0.01c0.142,0.002,0.283,0.004,0.425,0.004c2.288,0,4.551-0.359,6.732-1.071l0.097-0.032  c0.525-0.172,0.811-0.737,0.639-1.262C56.815,19.348,56.25,19.064,55.727,19.234z"></path><path d="M51.779,24.334c-1.851,0.2-3.729,0.22-5.583,0.058c-0.538-0.052-1.035,0.359-1.083,0.909  c-0.048,0.55,0.359,1.035,0.909,1.083c0.886,0.078,1.776,0.116,2.668,0.116c1.104,0,2.209-0.06,3.304-0.178  c0.55-0.06,0.946-0.553,0.887-1.102C52.821,24.671,52.315,24.277,51.779,24.334z"></path><path d="M46.121,21.173c0.066-0.548-0.324-1.046-0.873-1.113l-0.407-0.049c-0.554-0.067-1.047,0.325-1.113,0.873  c-0.066,0.548,0.324,1.046,0.873,1.113l0.407,0.049c0.041,0.005,0.081,0.007,0.121,0.007C45.628,22.053,46.06,21.681,46.121,21.173z  "></path><path d="M42.063,25.326l0.394,0.118c0.096,0.029,0.191,0.042,0.286,0.042c0.431,0,0.828-0.28,0.958-0.714  c0.158-0.529-0.143-1.086-0.672-1.245l-0.394-0.118c-0.531-0.16-1.086,0.143-1.244,0.671C41.233,24.611,41.534,25.168,42.063,25.326  z"></path><path d="M43.625,28.325c-0.318-0.067-0.525-0.125-0.691-0.193c-0.508-0.208-1.094,0.034-1.305,0.546  c-0.209,0.511,0.035,1.095,0.547,1.305c0.283,0.116,0.594,0.206,1.037,0.299c0.069,0.015,0.139,0.021,0.207,0.021  c0.463,0,0.878-0.323,0.978-0.793C44.512,28.969,44.166,28.439,43.625,28.325z"></path></svg>