<svg height='100px' width='100px'  fill="#000000" xmlns="http://www.w3.org/2000/svg" xmlns:xlink="http://www.w3.org/1999/xlink" version="1.1" x="0px" y="0px" viewBox="0 0 100 100" style="enable-background:new 0 0 100 100;" xml:space="preserve"><path d="M16.0393066,62.7485352c0,0-0.0004883,0-0.0009766,0c-0.1489258,0.0009766-0.2944336,0.0722656-0.3891602,0.1875  c-0.7783203,0.9453125-7.6064453,9.3642578-7.6064453,13.796875c0,4.7382813,3.5898438,8.5927734,8.0024414,8.5927734  c4.4111328,0,8-3.8544922,8-8.5927734c0-4.5986328-7.3061523-13.4355469-7.6171875-13.8085938  C16.333252,62.8100586,16.1882324,62.7485352,16.0393066,62.7485352z M18.0256348,77.0952148  c0.0908203-0.8242188,0.8295898-1.4111328,1.6557617-1.3261719c0.8232422,0.0917969,1.4169922,0.8330078,1.3256836,1.65625  c-0.2675781,2.4228516-1.9570313,4.4042969-4.1079102,4.8193359c-0.0961914,0.0185547-0.1918945,0.0273438-0.2856445,0.0273438  c-0.7045898,0-1.3330078-0.4980469-1.4711914-1.2158203c-0.1572266-0.8134766,0.375-1.6005859,1.1884766-1.7568359  C17.2038574,79.1303711,17.9006348,78.2241211,18.0256348,77.0952148z M83.2805176,69.559082  c-0.0957031-0.1142578-0.2402344-0.1757813-0.3886719-0.1757813h-0.0009766c-0.1484375,0-0.2939453,0.0712891-0.3886719,0.1865234  c-0.8867188,1.0761719-8.6679688,10.6582031-8.6679688,15.7050781c0,5.3681641,4.0654297,9.7363281,9.0625,9.7363281  c4.9960938,0,9.0605469-4.3681641,9.0605469-9.7363281C91.9572754,80.050293,83.6340332,69.9848633,83.2805176,69.559082z   M84.1223145,91.8725586c-0.1123047,0.0263672-0.2246094,0.0380859-0.3349609,0.0380859  c-0.6845703,0-1.3027344-0.4707031-1.4609375-1.1660156c-0.1845703-0.8076172,0.3203125-1.6123047,1.1279297-1.7958984  c1.3154297-0.3007813,2.3369141-1.6416016,2.484375-3.2617188c0.0751953-0.8251953,0.796875-1.4335938,1.6308594-1.3574219  c0.8242188,0.0751953,1.4326172,0.8056641,1.3574219,1.6308594C88.6584473,88.9018555,86.7277832,91.277832,84.1223145,91.8725586z   M61.4934082,26.7612305c0.2353516-3.4291992-0.9277344-6.7016602-3.2734375-9.2138672s-5.5302734-3.8959961-8.9677734-3.8959961  h-0.0024414c-3.4370117,0-6.621582,1.3833008-8.9677734,3.8955078c-2.3461914,2.5126953-3.5087891,5.7851563-3.2734375,9.2143555  l1.453125,21.1831055c0.0473633,0.6933594,0.0473633,1.3959961,0,2.0893555l-1.4526367,21.1826172  c-0.2353516,3.4296875,0.9267578,6.7011719,3.2729492,9.2138672c2.3457031,2.5117188,5.5307617,3.8955078,8.9677734,3.8955078  c3.4399414,0,6.6245117-1.3837891,8.9702148-3.8955078c2.3457031-2.5126953,3.5087891-5.7841797,3.2734375-9.2138672  l-1.453125-21.1826172c-0.0478516-0.6933594-0.0478516-1.3959961,0-2.0893555L61.4934082,26.7612305z M41.1135254,43.0166016  c0-1.3032227,1.0605469-2.3637695,2.3637695-2.3637695c1.3037109,0,2.3642578,1.0605469,2.3642578,2.3637695  s-1.0605469,2.3637695-2.3642578,2.3637695C42.1740723,45.3803711,41.1135254,44.3198242,41.1135254,43.0166016z   M53.9523926,58.324707c-0.828125,0-1.5-0.671875-1.5-1.5c0-0.8320313-1.3691406-1.7626953-3.2011719-1.7626953  s-3.2011719,0.9306641-3.2011719,1.7626953c0,0.828125-0.6713867,1.5-1.5,1.5s-1.5-0.671875-1.5-1.5  c0-2.6708984,2.7241211-4.7626953,6.2011719-4.7626953c3.4775391,0,6.2011719,2.0917969,6.2011719,4.7626953  C55.4523926,57.652832,54.7805176,58.324707,53.9523926,58.324707z M55.0246582,45.3803711  c-1.3027344,0-2.3632813-1.0605469-2.3632813-2.3637695s1.0605469-2.3637695,2.3632813-2.3637695  c1.3037109,0,2.3642578,1.0605469,2.3642578,2.3637695S56.3283691,45.3803711,55.0246582,45.3803711z M68.7434082,60.855957  l10.0683594-4.2490234c2.7841797-1.1757813,4.5830078-3.8876953,4.5830078-6.9101563V38.2543945  c0-3.0224609-1.7988281-5.7348633-4.5839844-6.909668l-9.2402344-3.8999023l0.0253906-0.2983398  c0.4863281-5.6811523-1.4472656-11.3481445-5.3037109-15.5483398s-9.3388672-6.609375-15.0415039-6.609375  c-5.7021484,0-11.184082,2.4086914-15.0405273,6.6088867s-5.7900391,9.8676758-5.3041992,15.5488281l0.0253906,0.2983398  l-9.2402344,3.8999023c-2.784668,1.1748047-4.5839844,3.887207-4.5839844,6.909668v11.4423828  c0,3.0214844,1.7993164,5.734375,4.5839844,6.9101563l10.0668945,4.2480469l-0.8520508,9.9755859  c-0.4858398,5.6816406,1.4477539,11.3486328,5.3041992,15.5488281s9.3383789,6.609375,15.0405273,6.609375  c5.7026367,0,11.1850586-2.4091797,15.0415039-6.609375s5.7900391-9.8671875,5.3037109-15.5488281L68.7434082,60.855957z   M63.0324707,49.8286133l1.453125,21.1826172c0.2929688,4.2675781-1.1533203,8.3398438-4.0722656,11.4658203  c-2.9199219,3.1269531-6.8837891,4.8486328-11.1611328,4.8486328c-4.2802734,0-8.2436523-1.7216797-11.1630859-4.8486328  c-2.9194336-3.1259766-4.3657227-7.1982422-4.0732422-11.4658203l1.4526367-21.1826172  c0.0380859-0.5566406,0.0380859-1.1220703,0-1.6791992l-1.453125-21.1831055  c-0.2924805-4.2675781,1.1542969-8.3398438,4.0742188-11.4667969c2.9194336-3.1264648,6.8828125-4.8481445,11.1601563-4.8481445  h0.0024414c4.2773438,0,8.2412109,1.7216797,11.1601563,4.8486328c2.9199219,3.1264648,4.3662109,7.1987305,4.0732422,11.4663086  l-1.453125,21.1831055C62.9943848,48.706543,62.9943848,49.2719727,63.0324707,49.8286133z"></path></svg>