<svg height='100px' width='100px'  fill="#000000" xmlns="http://www.w3.org/2000/svg" xmlns:xlink="http://www.w3.org/1999/xlink" xml:space="preserve" version="1.1" style="shape-rendering:geometricPrecision;text-rendering:geometricPrecision;image-rendering:optimizeQuality;" viewBox="0 0 846.66 846.66" x="0px" y="0px" fill-rule="evenodd" clip-rule="evenodd"><defs><style type="text/css">
   
    .fil0 {fill:#000000}
   
  </style></defs><g><path class="fil0" d="M96.36 93.22l341.39 0c37.56,0 68.27,30.72 68.27,68.28l0 523.66c0,37.56 -30.71,68.28 -68.27,68.28l-341.39 0c-37.55,0 -68.27,-30.72 -68.27,-68.28l0 -523.66c0,-37.56 30.72,-68.28 68.27,-68.28zm616.84 535.55c29.45,17.02 66.1,10.26 87.77,-14.3l-119.25 -68.85c-10.45,31.05 2.03,66.15 31.48,83.15zm101.73 -38.5c10.45,-31.05 -2.03,-66.15 -31.48,-83.15 -29.45,-17.02 -66.1,-10.26 -87.76,14.3l119.24 68.85zm-242.22 -51.31c29.46,17.02 66.1,10.26 87.77,-14.3l-119.25 -68.85c-10.44,31.05 2.03,66.15 31.48,83.15zm101.74 -38.5c10.44,-31.05 -2.03,-66.15 -31.49,-83.15 -29.45,-17.02 -66.09,-10.26 -87.76,14.3l119.25 68.85zm-111.52 229.56c35.42,20.46 79.48,12.33 105.53,-17.21l-143.4 -82.79c-12.56,37.33 2.45,79.55 37.87,100zm122.34 -46.31c12.55,-37.33 -2.45,-79.55 -37.87,-100 -35.42,-20.46 -79.49,-12.32 -105.54,17.21l143.41 82.79zm-328.19 -1.44c38.68,0 70.02,-31.34 70.02,-70.02 0,-38.67 -31.34,-70.02 -70.02,-70.02 -38.67,0 -70.02,31.35 -70.02,70.02 0,38.68 31.35,70.02 70.02,70.02zm-180.05 0c38.68,0 70.02,-31.34 70.02,-70.02 0,-38.67 -31.34,-70.02 -70.02,-70.02 -38.67,0 -70.02,31.35 -70.02,70.02 0,38.68 31.35,70.02 70.02,70.02zm180.05 -193.38c38.68,0 70.02,-31.35 70.02,-70.02 0,-38.68 -31.34,-70.02 -70.02,-70.02 -38.67,0 -70.02,31.34 -70.02,70.02 0,38.67 31.35,70.02 70.02,70.02zm-180.05 0c38.68,0 70.02,-31.35 70.02,-70.02 0,-38.68 -31.34,-70.02 -70.02,-70.02 -38.67,0 -70.02,31.34 -70.02,70.02 0,38.67 31.35,70.02 70.02,70.02zm180.05 -194.5c38.68,0 70.02,-31.35 70.02,-70.02 0,-38.68 -31.34,-70.02 -70.02,-70.02 -38.67,0 -70.02,31.34 -70.02,70.02 0,38.67 31.35,70.02 70.02,70.02zm-180.05 0c38.68,0 70.02,-31.35 70.02,-70.02 0,-38.68 -31.34,-70.02 -70.02,-70.02 -38.67,0 -70.02,31.34 -70.02,70.02 0,38.67 31.35,70.02 70.02,70.02z"></path></g></svg>