<svg height='100px' width='100px'  fill="#000000" xmlns="http://www.w3.org/2000/svg" xmlns:xlink="http://www.w3.org/1999/xlink" version="1.1" x="0px" y="0px" viewBox="0 0 66 66" enable-background="new 0 0 66 66" xml:space="preserve"><g><path d="M8.1,21.9c-2.5,0-4.5,2-4.5,4.5s2,4.5,4.5,4.5c2.5,0,4.5-2,4.5-4.5S10.6,21.9,8.1,21.9z"></path><path d="M57.2,21.8c-2.5,0-4.5,2-4.5,4.5s2,4.5,4.5,4.5s4.5-2,4.5-4.5S59.7,21.8,57.2,21.8z"></path><path d="M52.8,30.5c-3.3-5.5-10.5-7.3-16-4c-5.5,3.3-7.3,10.5-4,16c3.3,5.5,10.5,7.3,16,4C54.3,43.2,56.1,36,52.8,30.5z M34.4,41.4   c-2.7-4.6-1.3-10.5,3.3-13.3c4.6-2.7,10.5-1.3,13.3,3.3c2.7,4.6,1.3,10.5-3.3,13.3C43.1,47.5,37.2,46,34.4,41.4z"></path><path d="M58.9,55.9l-6.8-9.5c-0.7,0.7-1.5,1.3-2.3,1.8c-0.8,0.5-1.7,0.9-2.6,1.2l5.1,10.5c1,2.1,3.6,2.7,5.5,1.6   C59.7,60.4,60.2,57.7,58.9,55.9L58.9,55.9z"></path><path d="M48.2,33.2c0-0.6-0.4-1-1-1c-1.3,0-2.3-1.1-2.3-2.3c0-0.6-0.4-1-1-1s-1,0.4-1,1c0,2.4,1.9,4.3,4.3,4.3   C47.7,34.2,48.2,33.8,48.2,33.2z"></path><path d="M47.7,38c0.4-0.4,0.3-1-0.1-1.4c-0.4-0.4-1-0.3-1.4,0.1c-1.6,1.8-1.4,4.5,0.4,6.1c0.4,0.4,1,0.3,1.4-0.1   c0.4-0.4,0.3-1-0.1-1.4C47,40.4,46.9,39,47.7,38z"></path><path d="M40.4,33.2c0-0.6-0.4-1-1-1c-2.4,0-4.3,1.9-4.3,4.3c0,0.6,0.4,1,1,1s1-0.4,1-1c0-1.3,1.1-2.3,2.3-2.3   C40,34.2,40.4,33.8,40.4,33.2z"></path><path d="M39.3,38.3c-0.5-0.1-1.1,0.3-1.2,0.8c-0.1,0.5,0.3,1.1,0.8,1.2c1.3,0.2,2.1,1.4,1.9,2.7c-0.1,0.6,0.4,1.2,1,1.2   c0.5,0,0.9-0.3,1-0.8C43.3,40.9,41.7,38.7,39.3,38.3z"></path><path d="M35.6,24.9h-6.2c-1.7,0-3.1,1.7-2.3,3.5c0.9,2.2,1.6,4.5,2.1,6.8C29.5,31.1,31.8,27.2,35.6,24.9z"></path><path d="M29.8,40.8c0,0.5,0,1.1,0,10.7h7.6c0-0.9,0-1.7,0-2.5C33.8,47.5,31,44.6,29.8,40.8z"></path><path d="M40.7,11c-4.8,4.5-12.6,4.3-17-1.1C12.4-3.6-4,7.7,2.2,23.8c1-2.3,3.3-3.9,6-3.9c0.9,0,1.7,0.2,2.4,0.5   c-0.5-2.7,0-4.9,3.1-4.9c1.9,0,3.4,1.5,3.4,3.4c0,2.7,0.7,5.5,1.9,8c1.1,2.2,1.7,4.6,1.7,7v16.6c0,0.5,0.5,1,1,1h6.1v-9.9   c0-4.3-0.9-8.5-2.6-12.5c-1.3-3.1,1-6.3,4.2-6.3h6.4c1.2,0,2.1,0.2,2.8,0.6c1.3-0.4,2.8-0.7,4.2-0.7c1.7,0,3.3,0.3,4.8,0.9   c0.5-1.6,0.7-3.2,0.7-4.9c0-1.9,1.5-3.4,3.4-3.4c1.9,0,3.4,1.5,3.4,3.3c-0.1,0.6-0.2,1.1-0.3,1.5c0.8-0.3,1.6-0.5,2.4-0.5   c3,0,5.5,2,6.3,4.7C70.1,13.3,56.7-4.1,40.7,11z"></path></g></svg>